<svg id="visual" viewBox="0 0 1920 1240" width="1920" height="1240" xmlns="http://www.w3.org/2000/svg" xmlns:xlink="http://www.w3.org/1999/xlink" version="1.1"><rect x="0" y="0" width="1920" height="1240" fill="#202020"></rect><path d="M0 830L35.5 863.5C71 897 142 964 213.2 968.3C284.3 972.7 355.7 914.3 426.8 888.8C498 863.3 569 870.7 640 867.7C711 864.7 782 851.3 853.2 851.8C924.3 852.3 995.7 866.7 1066.8 877C1138 887.3 1209 893.7 1280 880C1351 866.3 1422 832.7 1493.2 827C1564.3 821.3 1635.7 843.7 1706.8 871.3C1778 899 1849 932 1884.5 948.5L1920 965L1920 1241L1884.5 1241C1849 1241 1778 1241 1706.8 1241C1635.7 1241 1564.3 1241 1493.2 1241C1422 1241 1351 1241 1280 1241C1209 1241 1138 1241 1066.8 1241C995.7 1241 924.3 1241 853.2 1241C782 1241 711 1241 640 1241C569 1241 498 1241 426.8 1241C355.7 1241 284.3 1241 213.2 1241C142 1241 71 1241 35.5 1241L0 1241Z" fill="#FFF" stroke-linecap="round" stroke-linejoin="miter"></path></svg>