<svg id="visual" viewBox="0 0 3840 2160" width="3840" height="2160" xmlns="http://www.w3.org/2000/svg" xmlns:xlink="http://www.w3.org/1999/xlink" version="1.1"><rect x="0" y="0" width="3840" height="2160" fill="#5f127c"></rect><path d="M0 1751L91.5 1766.5C183 1782 366 1813 548.8 1813.3C731.7 1813.7 914.3 1783.3 1097.2 1766.8C1280 1750.3 1463 1747.7 1645.8 1735.7C1828.7 1723.7 2011.3 1702.3 2194.2 1717.8C2377 1733.3 2560 1785.7 2742.8 1787C2925.7 1788.3 3108.3 1738.7 3291.2 1720.7C3474 1702.7 3657 1716.3 3748.5 1723.2L3840 1730L3840 2161L3748.5 2161C3657 2161 3474 2161 3291.2 2161C3108.3 2161 2925.7 2161 2742.8 2161C2560 2161 2377 2161 2194.2 2161C2011.3 2161 1828.7 2161 1645.8 2161C1463 2161 1280 2161 1097.2 2161C914.3 2161 731.7 2161 548.8 2161C366 2161 183 2161 91.5 2161L0 2161Z" fill="#FFF" stroke-linecap="round" stroke-linejoin="miter"></path></svg>