<svg id="visual" viewBox="0 0 1920 1240" width="1920" height="1240" xmlns="http://www.w3.org/2000/svg" xmlns:xlink="http://www.w3.org/1999/xlink" version="1.1"><rect x="0" y="0" width="1920" height="1240" fill="#202020"></rect><path d="M0 966L35.5 988.3C71 1010.7 142 1055.3 213.2 1058.3C284.3 1061.3 355.7 1022.7 426.8 1005.7C498 988.7 569 993.3 640 991.3C711 989.3 782 980.7 853.2 981C924.3 981.3 995.7 990.7 1066.8 997.5C1138 1004.3 1209 1008.7 1280 999.5C1351 990.3 1422 967.7 1493.2 963.8C1564.3 960 1635.7 975 1706.8 993.5C1778 1012 1849 1034 1884.5 1045L1920 1056L1920 1241L1884.5 1241C1849 1241 1778 1241 1706.8 1241C1635.7 1241 1564.3 1241 1493.2 1241C1422 1241 1351 1241 1280 1241C1209 1241 1138 1241 1066.8 1241C995.7 1241 924.3 1241 853.2 1241C782 1241 711 1241 640 1241C569 1241 498 1241 426.8 1241C355.7 1241 284.3 1241 213.2 1241C142 1241 71 1241 35.5 1241L0 1241Z" fill="#FFF" stroke-linecap="round" stroke-linejoin="miter"></path></svg>